Coordinates
version=1
nRows=13
nColumns=36
inDegrees=yes

Units are S.I. units (second, meters, Newtons, ...)
If the header above contains a line with 'inDegrees', this indicates whether rotational values are in degrees (yes) or radians (no).

endheader
time	pelvis_tilt	pelvis_list	pelvis_rotation	pelvis_tx	pelvis_ty	pelvis_tz	hip_flexion_r	hip_adduction_r	hip_rotation_r	knee_angle_r	knee_angle_r_beta	ankle_angle_r	subtalar_angle_r	mtp_angle_r	hip_flexion_l	hip_adduction_l	hip_rotation_l	knee_angle_l	knee_angle_l_beta	ankle_angle_l	subtalar_angle_l	mtp_angle_l	lumbar_extension	lumbar_bending	lumbar_rotation	arm_flex_r	arm_add_r	arm_rot_r	elbow_flex_r	pro_sup_r	arm_flex_l	arm_add_l	arm_rot_l	elbow_flex_l	pro_sup_l
      0.00000000	      5.27119170	      0.61390944	     15.83012183	     -0.11107242	      1.32921095	      0.32596735	     -9.58753609	     -0.78872789	     -4.92186361	      4.09078610	      0.07139769	     19.08317639	      4.58174626	     -6.41799682	    -10.32303102	     -1.25387140	     -1.23548252	      1.67394227	      0.02921580	     25.73129216	     10.36877402	     -6.41799682	     -4.24400665	     -0.17754562	      0.39669324	    -18.31967931	    -41.86154471	     37.52962971	     75.70490013	     65.82998967	    -22.84540339	    -37.81770538	     25.03017754	     86.15543961	     73.22585518
      0.01666670	      5.32536103	      0.45763112	     15.87044183	     -0.11866358	      1.32625822	      0.32840266	    -10.02176646	     -0.44065712	     -5.69418672	      3.24517265	      0.05663895	     19.77527017	      4.49592407	     -6.47266581	    -10.46555709	     -1.23638770	     -1.56060147	      1.04793421	      0.01828990	     25.43833470	      9.00825238	     -6.47266581	     -5.43787093	      0.04331348	      0.26233927	    -19.88731847	    -42.95326069	     34.80028253	     80.02877850	     65.56062258	    -24.60024512	    -37.10204931	     23.10995984	     88.41432853	     73.20180860
      0.03333330	      4.73748608	      0.45309156	     15.93201797	     -0.11844105	      1.32801482	      0.32872795	     -9.18971085	     -0.55733444	     -6.17083822	      3.05029127	      0.05323763	     20.28162103	      4.62868571	     -6.91702800	     -9.89707942	     -0.96115580	     -1.55940749	      0.64657055	      0.01128479	     25.49874200	      9.03885763	     -6.91702800	     -5.73722677	      0.01202192	      0.31208422	    -21.06235688	    -42.72927430	     32.88096310	     81.56202002	     64.62760870	    -24.14718218	    -37.18938251	     23.33479622	     87.86776933	     71.46263353
      0.05000000	      3.59498866	      0.24560760	     16.09472343	     -0.11800801	      1.32652832	      0.33449244	     -7.79741536	     -0.70231197	     -6.71250188	      3.09146108	      0.05395617	     20.21063097	      4.32712963	     -7.05181424	     -8.45220167	     -0.84617335	     -1.60825868	      0.64621354	      0.01127855	     25.46167252	      8.88729205	     -7.05181424	     -5.17411810	     -0.18069593	      0.89218054	    -22.55297575	    -41.76956873	     30.43834746	     82.00811944	     67.51799448	    -22.90169343	    -37.62317565	     24.38428021	     87.27757199	     75.88246557
      0.06666670	      2.59778298	      0.09149537	     16.02033892	     -0.11819842	      1.32682894	      0.33511315	     -6.30702733	     -0.90358400	     -6.96949335	      3.50777515	      0.06122223	     20.53229624	      4.16790468	     -7.35020509	     -7.29269982	     -0.69439074	     -1.92956960	      0.76575407	      0.01336493	     25.58412873	      9.01239304	     -7.35020509	     -4.75911299	     -0.45265085	      1.16370648	    -22.96796365	    -40.79378419	     29.26020717	     81.59454134	     69.54869594	    -22.36958180	    -37.53738473	     24.60746682	     86.55798288	     77.16307030
      0.08333330	      1.91077741	      0.01950019	     16.06314407	     -0.11876916	      1.32646820	      0.33480047	     -5.21741713	     -1.08853916	     -7.37181774	      4.03158774	      0.07036448	     20.48478033	      3.76050463	     -7.40984851	     -6.37932395	     -0.56045467	     -2.34798644	      1.03921946	      0.01813780	     25.53824234	      9.12846324	     -7.40984851	     -4.86656707	     -0.67006726	      1.30346303	    -22.51692646	    -40.43056867	     29.45830992	     81.12436706	     67.29163375	    -21.78543010	    -37.72219984	     25.27750894	     86.18531172	     73.22140646
      0.10000000	      1.41667565	     -0.01110125	     15.97859443	     -0.11843610	      1.32682511	      0.33529430	     -4.42944019	     -1.30191658	     -7.88258997	      4.57209070	      0.07979804	     20.43074236	      3.65796659	     -7.45926474	     -5.74675579	     -0.42596815	     -3.13836515	      1.35714721	      0.02368669	     25.39672289	      9.51712560	     -7.45926474	     -5.17399204	     -0.79108438	      2.03025981	    -23.47729942	    -39.79075723	     27.88150125	     81.03289656	     71.03066918	    -20.71222408	    -37.97568280	     26.31790601	     85.50602524	     77.85679802
      0.11666670	      0.92614943	     -0.05978494	     15.97957501	     -0.11873491	      1.32618864	      0.33477549	     -3.72265525	     -1.41068140	     -8.17940390	      5.01501717	      0.08752856	     20.29423821	      3.36263331	     -7.47259331	     -5.06380743	     -0.32331061	     -3.72601895	      1.64822732	      0.02876699	     25.30696017	     10.01180237	     -7.47259331	     -5.67310618	     -0.93222315	      2.04397386	    -23.32036276	    -39.61595338	     27.81244479	     80.87657537	     69.72412708	    -20.51445709	    -38.03948981	     26.50061876	     85.42282337	     75.58529879
      0.13333330	      0.61420320	     -0.09105795	     15.83012202	     -0.11825867	      1.32677810	      0.33507446	     -3.14892668	     -1.48119784	     -8.20337588	      5.54585539	      0.09679344	     20.15755094	      2.85765539	     -7.47779012	     -4.55122860	     -0.23274245	     -3.90322244	      1.97625042	      0.03449208	     25.23387792	     10.12530630	     -7.47779012	     -6.34474731	     -1.05427790	      2.10485061	    -23.19910563	    -39.39666089	     27.58472782	     80.45415489	     69.02697888	    -20.42268876	    -37.95026767	     26.50968823	     85.26687290	     74.46185381
      0.15000000	      0.27916766	     -0.11626619	     15.75769834	     -0.11843054	      1.32616743	      0.33450169	     -2.65922780	     -1.57073075	     -8.24136688	      5.90067282	      0.10298617	     20.10001172	      2.66007877	     -7.48651322	     -4.05967483	     -0.12770695	     -4.37065821	      2.20792395	      0.03853554	     25.07636104	     10.30190512	     -7.48651322	     -7.07169241	     -1.11773677	      2.34130795	    -24.01647084	    -38.99537364	     26.05114837	     80.42582498	     72.37697994	    -20.02834695	    -38.03151381	     26.57026786	     85.10901230	     78.42139976
      0.16666670	     -0.47537173	     -0.31801663	     15.71266187	     -0.11743757	      1.32596029	      0.33456002	     -1.71889767	     -1.56664729	     -8.01034532	      6.20815783	      0.10835279	     19.91303156	      1.98405317	     -7.48898039	     -3.02563832	     -0.09364858	     -4.39893221	      2.45479426	      0.04284424	     24.92088373	     10.10320832	     -7.48898039	     -7.22944304	     -1.13284333	      2.32451115	    -23.93240599	    -38.90079767	     26.23923056	     80.01359280	     71.18520909	    -19.91372811	    -37.99124970	     26.74221080	     85.05745865	     76.67807618
      0.18333330	     -0.37459987	     -0.27558340	     15.71443356	     -0.11765126	      1.32579633	      0.33399436	     -1.63349966	     -1.61504562	     -8.11967017	      6.66629723	      0.11634884	     20.18890687	      1.84040833	     -7.49018627	     -2.95502148	     -0.05808815	     -4.60550415	      2.77842753	      0.04849271	     24.92893974	     10.20905822	     -7.49018627	     -8.56292674	     -1.20935026	      2.15099060	    -23.62196266	    -39.02230160	     26.38255843	     79.95521783	     70.84611987	    -19.67468493	    -38.13636188	     27.08302153	     85.41496164	     76.09154966
      0.20000000	     -0.77929536	     -0.38225873	     15.56552160	     -0.11670628	      1.32630714	      0.33424284	     -0.86315080	     -1.70638508	     -8.13709302	      7.25939316	      0.12670031	     20.35004094	      1.61344667	     -7.49089115	     -2.20378255	     -0.03965819	     -4.92029122	      3.34197952	      0.05832855	     25.15822033	     10.36186880	     -7.49089115	     -9.31140003	     -1.21149724	      2.21258877	    -23.25335506	    -39.06931234	     26.66277825	     79.72922590	     70.90789890	    -19.48769533	    -38.11502108	     27.24334308	     85.36163901	     76.06301315
